PathFileType        4      (X/Y/Z)      C:\Users\pc\Desktop\IMUTRC\Sujet_05\Sujet_05_Tpose.trc         
DataRate	CameraRate	NumFrames	NumMarkers	Units	OrigDataRate	OrigDataStartFrame	OrigNumFrames
60.0	60.0	4	64	mm	60.0	59	116
Frame#	Time	pHipOrigin			pRightASI			pLeftASI			pRightCSI			pLeftCSI			pRightIschialTub			pLeftIschialTub			pSacrum			pL5SpinalProcess			pL3SpinalProcess			pT12SpinalProcess			pIJ			pT4SpinalProcess			pT8SpinalProcess			pPX			pC7SpinalProcess			pTopOfHead			pRightAuricularis			pLeftAuricularis			pBackOfHead			pRightAcromion			pLeftAcromion			pRightArmLatEpicondyle			pRightArmMedEpicondyle			pLeftArmLatEpicondyle			pLeftArmMedEpicondyle			pRightUlnarStyloid			pRightRadialStyloid			pRightOlecranon			pLeftUlnarStyloid			pLeftRadialStyloid			pLeftOlecranon			pRightTopOfHand			pRightPinky			pRightBallHand			pLeftTopOfHand			pLeftPinky			pLeftBallHand			pRightGreaterTrochanter			pRightKneeLatEpicondyle			pRightKneeMedEpicondyle			pRightPatella			pLeftGreaterTrochanter			pLeftKneeLatEpicondyle			pLeftKneeMedEpicondyle			pLeftPatella			pRightTibialTub			pRightLatMalleolus			pRightMedMalleolus			pLeftTibialTub			pLeftLatMalleolus			pLeftMedMalleolus			pRightHeelFoot			pRightFirstMetatarsal			pRightFifthMetatarsal			pRightPivotFoot			pRightHeelCenter			pRightToe			pLeftHeelFoot			pLeftFirstMetatarsal			pLeftFifthMetatarsal			pLeftPivotFoot			pLeftHeelCenter			pLeftToe			
		X1	Y1	Z1	X2	Y2	Z2	X3	Y3	Z3	X4	Y4	Z4	X5	Y5	Z5	X6	Y6	Z6	X7	Y7	Z7	X8	Y8	Z8	X9	Y9	Z9	X10	Y10	Z10	X11	Y11	Z11	X12	Y12	Z12	X13	Y13	Z13	X14	Y14	Z14	X15	Y15	Z15	X16	Y16	Z16	X17	Y17	Z17	X18	Y18	Z18	X19	Y19	Z19	X20	Y20	Z20	X21	Y21	Z21	X22	Y22	Z22	X23	Y23	Z23	X24	Y24	Z24	X25	Y25	Z25	X26	Y26	Z26	X27	Y27	Z27	X28	Y28	Z28	X29	Y29	Z29	X30	Y30	Z30	X31	Y31	Z31	X32	Y32	Z32	X33	Y33	Z33	X34	Y34	Z34	X35	Y35	Z35	X36	Y36	Z36	X37	Y37	Z37	X38	Y38	Z38	X39	Y39	Z39	X40	Y40	Z40	X41	Y41	Z41	X42	Y42	Z42	X43	Y43	Z43	X44	Y44	Z44	X45	Y45	Z45	X46	Y46	Z46	X47	Y47	Z47	X48	Y48	Z48	X49	Y49	Z49	X50	Y50	Z50	X51	Y51	Z51	X52	Y52	Z52	X53	Y53	Z53	X54	Y54	Z54	X55	Y55	Z55	X56	Y56	Z56	X57	Y57	Z57	X58	Y58	Z58	X59	Y59	Z59	X60	Y60	Z60	X61	Y61	Z61	X62	Y62	Z62	X63	Y63	Z63	X64	Y64	Z64	
59	0.967	269.95587	878.88727	284.14943000000005	343.33563	971.19177	403.17121000000003	320.97846	971.56284	154.27375000000006	300.10558	1033.62486	386.00907000000007	281.55192	1033.99593	178.95013000000006	222.73679	825.91654	340.45981000000006	213.45995	826.00931	236.93034000000006	207.80108	898.73969	289.71553000000006	239.43509	986.49854	287.30355000000003	248.24808	1100.78914	287.86016000000006	244.53735	1205.24629	289.99383000000006	393.89438	1427.51924	279.41824000000014	241.7543	1401.72964	294.6322500000001	238.50741	1309.61067	292.77689000000004	394.72929	1301.6326	276.3568900000001	245.8361	1458.78217	301.31157000000013	324.50366	1727.25375	284.7988100000001	359.47732	1616.85942	341.29473000000013	271.81124	1626.41456	224.40662000000012	269.77034	1624.8375	317.4532600000001	286.37587	1424.55065	491.4866700000001	231.08594	1433.82748	96.66461000000008	323.57597	1332.52445	720.0678700000001	378.49483	1323.34039	706.2453800000001	158.07725	1353.30456	-126.35047999999992	212.25396	1337.81225	-136.92606999999992	451.13244	1253.39306	919.0559600000001	437.68103	1297.64356	937.7951600000001	353.54015	1307.477	698.6383800000001	204.27589	1281.31633	-362.72420999999997	183.31024	1325.28852	-373.3925699999999	193.79306	1325.28852	-119.85669999999992	488.42532	1235.21046	1097.91332	489.44577	1220.7386	1012.8447500000001	470.79933	1257.56763	953.2874800000001	189.98956	1290.12932	-547.2404499999999	213.45995	1262.9482	-468.7584299999999	212.1612	1289.85102	-401.40860999999995	274.22322	846.97496	433.04262000000006	254.83463	486.47718	408.73731000000004	258.54537	485.5495	338.32614000000007	296.30208	486.47718	373.29981000000004	254.27802	848.18094	135.25624000000005	229.50888	487.77594	156.77850000000004	237.9508	485.8278	226.63306000000003	273.20277	486.56995	189.24742000000003	307.61982	451.59629	374.7841	225.70537	85.16133999999997	407.53132	229.1378	83.95534999999998	347.88128	284.79881	452.70951	186.74267000000003	204.46142	85.81071999999999	155.38697	211.69735	84.04811999999998	214.57317	189.24742	-0.18554000000002288	373.48534	354.09676	2.3192099999999787	350.94264	346.67529	1.7625999999999737	428.96081	372.65043	2.226439999999976	391.01856	228.02458	3.061359999999977	377.19608	452.98781	3.0613599999999757	398.71833	169.6733	0.1855399999999885	187.94866	333.87326	2.5047499999999867	215.03702	328.58546	2.2264399999999918	136.8333	353.54015	2.5975099999999895	175.42493	208.636	3.4324299999999885	185.25838	434.06307	3.3396599999999896	169.9516	
60	0.983	269.95587	878.88727	284.14943000000005	343.4284	971.19177	403.17121000000003	320.97846	971.56284	154.27375000000006	300.19835	1033.62486	386.00907000000007	281.55192	1033.99593	178.95013000000006	222.82956	825.91654	340.45981000000006	213.45995	826.00931	236.93034000000006	207.89385	898.73969	289.80830000000003	239.43509	986.59131	287.30355000000003	248.34085	1100.78914	287.86016000000006	244.63012	1205.24629	289.99383000000006	394.07991	1427.42647	279.41824000000014	241.93983	1401.72964	294.6322500000001	238.69294	1309.70344	292.77689000000004	394.82206	1301.6326	276.44966000000005	246.02164	1458.78217	301.31157000000013	324.68919	1727.25375	284.8915800000001	359.66286	1616.85942	341.29473000000013	271.99678	1626.41456	224.40662000000012	270.04864	1624.8375	317.4532600000001	286.56141	1424.55065	491.5794400000001	231.27147	1433.92025	96.66461000000008	323.66874	1332.33892	720.1606300000001	378.5876	1323.15485	706.2453800000001	158.26279	1353.30456	-126.25770999999992	212.53227	1337.90502	-136.92606999999992	451.22521	1253.20752	919.0559600000001	437.7738	1297.45802	937.8879300000001	353.63292	1307.38423	698.7311500000001	204.46142	1281.31633	-362.72420999999997	183.49578	1325.28852	-373.2998099999999	194.07137	1325.28852	-119.85669999999992	488.51809	1234.93216	1098.00609	489.53854	1220.4603	1012.9375200000001	470.79933	1257.3821	953.2874800000001	190.1751	1290.12932	-547.2404499999999	213.55272	1262.9482	-468.7584299999999	212.34673	1289.85102	-401.40860999999995	274.31599	846.97496	433.04262000000006	254.9274	486.47718	408.73731000000004	258.63814	485.5495	338.32614000000007	296.30208	486.47718	373.20704000000006	254.18526	848.18094	135.25624000000005	229.41611	487.77594	156.77850000000004	237.9508	485.8278	226.63306000000003	273.11	486.56995	189.24742000000003	307.71259	451.59629	374.69133	225.70537	85.16133999999997	407.53132	229.1378	83.95534999999998	347.88128	284.79881	452.80227	186.74267000000003	204.46142	85.90347999999999	155.38697	211.69735	84.04811999999998	214.57317	189.24742	-0.18554000000002288	373.48534	354.09676	2.3192099999999787	350.94264	346.67529	1.7625999999999737	428.96081	372.65043	2.226439999999976	391.01856	228.02458	3.061359999999977	377.19608	452.98781	3.0613599999999757	398.71833	169.6733	0.1855399999999885	187.94866	333.87326	2.5047499999999867	215.03702	328.58546	2.2264399999999918	136.74054	353.54015	2.5975099999999895	175.42493	208.636	3.4324299999999885	185.25838	434.06307	3.3396599999999896	169.9516	
61	1.0	270.04864	878.88727	284.14943000000005	343.61394	971.19177	403.07844000000006	320.97846	971.56284	154.18098000000006	300.38389	1033.62486	386.00907000000007	281.55192	1033.99593	178.95013000000006	222.92232	825.91654	340.55258000000003	213.55272	826.10208	237.02311000000006	207.98662	898.73969	289.80830000000003	239.52786	986.59131	287.30355000000003	248.52639	1100.78914	287.86016000000006	244.72288	1205.24629	289.99383000000006	394.26545	1427.42647	279.5110100000001	242.12537	1401.72964	294.6322500000001	238.87848	1309.70344	292.86965000000004	395.0076	1301.53983	276.44966000000005	246.20718	1458.78217	301.4043400000001	324.87473	1727.25375	284.9843400000001	359.8484	1616.85942	341.3875000000001	272.27508	1626.41456	224.49939000000012	270.23418	1624.74473	317.5460300000001	286.74694	1424.55065	491.5794400000001	231.54978	1434.01302	96.75738000000008	323.85428	1332.24615	720.1606300000001	378.77314	1323.06208	706.3381500000002	158.5411	1353.39733	-126.25770999999992	212.71781	1337.90502	-136.92606999999992	451.31798	1253.02199	919.1487300000001	437.86657	1297.27248	937.8879300000001	353.81845	1307.29147	698.7311500000001	204.73973	1281.31633	-362.6314499999999	183.77408	1325.38129	-373.2998099999999	194.25691	1325.38129	-119.76392999999992	488.51809	1234.65385	1098.00609	489.53854	1220.27476	1012.9375200000001	470.8921	1257.10379	953.2874800000001	190.36064	1290.12932	-547.1476799999999	213.83103	1262.9482	-468.66565999999995	212.62504	1289.85102	-401.40860999999995	274.50152	846.97496	433.04262000000006	255.02017	486.47718	408.64454000000006	258.63814	485.5495	338.32614000000007	296.30208	486.47718	373.20704000000006	254.18526	848.18094	135.25624000000005	229.41611	487.77594	156.77850000000004	237.9508	485.8278	226.72583000000003	273.11	486.56995	189.24742000000003	307.71259	451.59629	374.69133	225.70537	85.16133999999997	407.53132	229.1378	83.95534999999998	347.88128	284.79881	452.80227	186.74267000000003	204.46142	85.90347999999999	155.38697	211.69735	84.04811999999998	214.57317	189.24742	-0.18554000000002288	373.48534	354.09676	2.3192099999999787	350.94264	346.67529	1.7625999999999737	428.96081	372.65043	2.226439999999976	391.01856	228.02458	3.061359999999977	377.19608	452.98781	3.0613599999999757	398.71833	169.6733	0.1855399999999885	187.94866	333.87326	2.597509999999987	215.03702	328.58546	2.2264399999999918	136.74054	353.54015	2.5975099999999895	175.42493	208.636	3.4324299999999885	185.25838	434.06307	3.3396599999999896	169.9516	
62	1.017	270.14141	878.88727	284.14943000000005	343.79947	971.099	403.07844000000006	320.88569	971.56284	154.18098000000006	300.56943	1033.53209	386.00907000000007	281.55192	1033.99593	179.04290000000006	223.01509	825.91654	340.55258000000003	213.55272	826.10208	237.02311000000006	207.98662	898.73969	289.90107000000006	239.62063	986.59131	287.30355000000003	248.61915	1100.78914	287.95293000000004	244.90842	1205.24629	290.08660000000003	394.45099	1427.3337	279.5110100000001	242.31091	1401.72964	294.7250200000001	238.97125	1309.70344	292.86965000000004	395.19313	1301.53983	276.44966000000005	246.39271	1458.78217	301.4043400000001	325.06027	1727.25375	284.9843400000001	360.03393	1616.85942	341.4802600000001	272.46062	1626.41456	224.59215000000012	270.41971	1624.74473	317.6388000000001	286.93248	1424.55065	491.5794400000001	231.73532	1434.01302	96.75738000000008	323.94705	1332.15338	720.1606300000001	378.86591	1322.96932	706.3381500000002	158.72663	1353.39733	-126.25770999999992	212.90334	1337.90502	-136.83329999999992	451.41075	1252.92922	919.1487300000001	437.95934	1297.08695	937.9807000000001	353.91122	1307.1987	698.7311500000001	205.01803	1281.4091	-362.6314499999999	184.05239	1325.38129	-373.2998099999999	194.44244	1325.38129	-119.76392999999992	488.61085	1234.46832	1098.00609	489.63131	1220.08922	1012.9375200000001	470.98487	1257.01102	953.2874800000001	190.73171	1290.22209	-547.1476799999999	214.10933	1263.04097	-468.66565999999995	212.90334	1289.94379	-401.3158399999999	274.59429	846.97496	433.04262000000006	255.02017	486.47718	408.64454000000006	258.63814	485.5495	338.32614000000007	296.39485	486.47718	373.20704000000006	254.18526	848.18094	135.25624000000005	229.32334	487.77594	156.77850000000004	237.85803	485.92057	226.72583000000003	273.11	486.56995	189.24742000000003	307.71259	451.59629	374.69133	225.70537	85.16133999999997	407.53132	229.04503	83.95534999999998	347.88128	284.70604	452.80227	186.74267000000003	204.46142	85.90347999999999	155.38697	211.69735	84.04811999999998	214.57317	189.24742	-0.18554000000002288	373.48534	354.09676	2.3192099999999787	350.94264	346.67529	1.7625999999999737	428.96081	372.65043	2.226439999999976	391.01856	228.02458	3.061359999999977	377.19608	452.98781	2.9685899999999754	398.71833	169.6733	0.1855399999999885	187.94866	333.87326	2.597509999999987	215.03702	328.58546	2.2264399999999918	136.74054	353.54015	2.5975099999999895	175.42493	208.636	3.4324299999999885	185.25838	434.06307	3.3396599999999896	169.9516	
